<svg xmlns="http://www.w3.org/2000/svg" width="500" height="500" viewBox="0 0 500 500" version="1.1">
	<path d="M 175.442 70.753 C 171.768 73.346, 171 76.441, 171 88.665 L 171 100.885 175.250 101.193 L 179.500 101.500 179.757 169.320 C 180.001 233.604, 179.922 237.113, 178.257 236.644 C 177.291 236.372, 175.050 235.858, 173.277 235.501 C 170.625 234.968, 169.872 234.201, 169.032 231.176 C 168.471 229.154, 168.009 226.488, 168.006 225.250 C 168.002 223.669, 167.406 223, 166 223 C 164.468 223, 164 223.667, 164 225.851 C 164 227.419, 163.511 230.104, 162.914 231.817 C 161.941 234.607, 161.208 235.055, 155.914 236.097 C 147.995 237.655, 148.034 241, 155.971 241 C 160.253 241, 162.826 243.815, 163.741 249.500 C 164.279 252.838, 165.030 254.500, 166 254.500 C 166.970 254.500, 167.721 252.838, 168.259 249.500 C 169.209 243.597, 171.761 241, 176.611 241 L 180 241 180 248.566 C 180 261.254, 181.777 262.924, 195.323 262.968 C 204.149 262.997, 205.113 262.822, 204.813 261.250 C 204.532 259.774, 202.998 259.422, 195.015 259 C 186.156 258.532, 185.470 258.340, 184.290 256 C 183.304 254.045, 183.026 233.943, 183.015 163.750 L 183 74 245.878 74 C 303.122 74, 308.878 74.148, 310.128 75.652 C 311.218 76.965, 311.560 84.266, 311.790 111.181 L 312.081 145.058 309.290 144.279 C 307.756 143.851, 303.228 143.540, 299.229 143.589 C 292.385 143.673, 291.923 143.540, 291.364 141.316 C 290.038 136.031, 289.779 136, 246.232 136 L 205.909 136 203.455 138.455 C 202.105 139.805, 201 141.409, 201 142.020 C 201 143.561, 203.071 147.348, 204.400 148.235 C 205.005 148.639, 222.400 148.976, 243.057 148.985 L 280.613 149 275.299 154.486 L 269.985 159.973 237.350 160.236 L 204.715 160.500 202.752 163.130 C 200.651 165.944, 200.954 168.812, 203.637 171.494 C 204.912 172.769, 209.776 173, 235.321 173 L 265.500 173 265.500 178.497 L 265.500 183.994 235.289 183.997 C 205.500 184, 205.049 184.031, 203.039 186.189 C 200.455 188.963, 200.463 191.048, 203.073 194.365 L 205.145 197 238.073 197 C 256.183 197, 271 197.369, 271 197.821 C 271 198.273, 273.017 200.748, 275.483 203.321 L 279.966 208 242.556 208 L 205.145 208 203.073 210.635 C 201.933 212.084, 201 213.823, 201 214.500 C 201 215.177, 201.933 216.916, 203.073 218.365 L 205.145 221 246.418 221 C 285.605 221, 287.776 220.905, 289.399 219.112 C 290.339 218.073, 291.172 216.370, 291.250 215.327 C 291.378 213.634, 292.098 213.467, 297.947 213.770 C 308.033 214.293, 307.497 213.988, 307.528 219.212 C 307.548 222.652, 308.146 224.527, 309.778 226.263 C 311.830 228.448, 311.999 229.580, 311.985 241.064 C 311.976 249.076, 311.521 254.389, 310.706 256 L 309.442 258.500 260.984 259 C 215.858 259.466, 212.504 259.620, 212.190 261.250 C 211.873 262.898, 214.707 262.998, 260.677 262.968 C 297.479 262.944, 309.891 262.636, 311.087 261.718 C 314.358 259.207, 315 256.139, 315.044 242.816 L 315.088 229.500 317.073 233 C 318.164 234.925, 321.670 241.450, 324.864 247.500 C 331.628 260.310, 333.306 261.519, 340.085 258.462 C 346.441 255.595, 349.003 253.210, 348.980 250.177 C 348.969 248.705, 345.752 241.650, 341.831 234.500 C 335.673 223.272, 334.681 220.767, 334.553 216.123 C 334.429 211.591, 333.972 210.372, 331.647 208.373 C 330.130 207.068, 328.239 206, 327.444 206 C 325.366 206, 325.598 205.316, 329.460 200.055 C 331.363 197.462, 333.425 194.027, 334.042 192.421 C 335.608 188.347, 337.068 178.920, 336.321 177.711 C 335.980 177.159, 335.619 174.821, 335.518 172.515 C 335.163 164.368, 327.768 153.293, 319.416 148.398 L 315 145.810 315 122.274 L 315 98.738 318.747 99.346 C 323.258 100.078, 324.576 101.685, 325.451 107.522 C 326.530 114.719, 329.951 114.480, 329.985 107.205 C 330.005 102.787, 333.787 99.005, 338.205 98.985 C 345.480 98.951, 345.719 95.530, 338.522 94.451 C 332.387 93.531, 331.008 92.213, 330.189 86.488 C 329.703 83.090, 328.968 81.425, 327.860 81.212 C 326.631 80.975, 326.076 82.011, 325.549 85.522 C 324.721 91.045, 322.090 94, 318 94 L 315 94 315 84.674 C 315 75.943, 314.836 75.194, 312.420 72.924 L 309.840 70.500 243.170 70.253 C 206.501 70.118, 176.024 70.343, 175.442 70.753 M 176.068 75.873 C 175.480 76.971, 175 82.173, 175 87.434 L 175 97 177.533 97 L 180.066 97 179.783 85.831 C 179.497 74.543, 178.381 71.551, 176.068 75.873 M 325.911 95.029 C 324.458 96.537, 324.458 96.843, 325.911 98.589 C 327.471 100.465, 327.537 100.462, 329.535 98.427 L 331.570 96.354 329.535 94.866 C 327.720 93.539, 327.329 93.557, 325.911 95.029 M 203.944 113.844 C 202.460 115.046, 201.667 116.769, 201.667 118.791 C 201.667 125.235, 199.998 125.002, 245.872 124.985 C 268.768 124.976, 287.995 124.639, 288.600 124.235 C 292.452 121.663, 292.172 115.233, 288.114 113.061 C 286.811 112.364, 272.428 112, 246.177 112 C 208.837 112, 206.072 112.121, 203.944 113.844 M 205.362 117.500 C 205.045 118.325, 205.045 119.675, 205.362 120.500 C 206.225 122.750, 285.123 122.762, 286.989 120.513 C 287.668 119.695, 287.963 118.345, 287.643 117.513 C 287.138 116.197, 281.785 116, 246.500 116 C 211.367 116, 205.860 116.201, 205.362 117.500 M 205.362 141.500 C 205.045 142.325, 205.045 143.675, 205.362 144.500 C 206.225 146.750, 285.123 146.762, 286.989 144.513 C 287.668 143.695, 287.963 142.345, 287.643 141.513 C 287.138 140.197, 281.785 140, 246.500 140 C 211.367 140, 205.860 140.201, 205.362 141.500 M 296.780 156.006 C 290.304 157.171, 283.905 161.924, 280.794 167.880 C 272.418 183.914, 283.444 201.970, 301.628 201.994 C 310.040 202.006, 319.527 195.425, 322.564 187.471 C 328.971 170.695, 314.344 152.845, 296.780 156.006 M 205.667 164.667 C 204.431 165.903, 204.988 168.781, 206.582 169.393 C 207.452 169.727, 221.165 170, 237.056 170 L 265.949 170 267.500 167 L 269.051 164 237.692 164 C 220.445 164, 206.033 164.300, 205.667 164.667 M 205.667 188.667 C 205.300 189.033, 205 190.158, 205 191.167 C 205 192.906, 206.624 193, 236.607 193 C 265.018 193, 268.153 192.840, 267.607 191.418 C 267.273 190.548, 267 189.423, 267 188.918 C 267 187.869, 206.712 187.622, 205.667 188.667 M 206.011 212.487 C 205.332 213.305, 205.037 214.655, 205.357 215.487 C 205.862 216.803, 211.215 217, 246.500 217 C 281.785 217, 287.138 216.803, 287.643 215.487 C 287.963 214.655, 287.668 213.305, 286.989 212.487 C 285.136 210.254, 207.864 210.254, 206.011 212.487 M 163.870 236.964 C 162.357 238.631, 162.381 238.882, 164.213 240.451 C 166.049 242.023, 166.315 242.025, 168.012 240.489 C 169.777 238.892, 169.774 238.774, 167.919 236.919 C 165.679 234.679, 165.945 234.676, 163.870 236.964 M 207.688 259.646 C 206.272 261.061, 207.073 263, 209.073 263 C 210.471 263, 211.041 262.457, 210.823 261.333 C 210.466 259.492, 208.759 258.574, 207.688 259.646 M 105.748 315.069 C 97.926 319.198, 94.140 329.842, 97.429 338.453 C 101.482 349.065, 113.653 353.648, 123.219 348.164 C 129.253 344.705, 126.685 340.847, 120.460 344.020 C 115.825 346.383, 112.890 346.512, 109.039 344.520 C 100.144 339.920, 98.470 328.597, 105.626 321.441 C 108.608 318.459, 109.718 318, 113.952 318 C 116.770 318, 120.124 318.738, 121.876 319.743 C 124.240 321.100, 125.180 321.220, 126.114 320.286 C 127.049 319.351, 127.019 318.728, 125.980 317.476 C 122.064 312.758, 112.322 311.599, 105.748 315.069 M 153.071 314.752 C 144.016 319.369, 140.369 330.933, 144.970 340.437 C 148.773 348.294, 157.241 352.184, 165.833 350.020 C 174.937 347.728, 180 341.326, 180 332.105 C 180 326.017, 178.704 322.389, 175.186 318.627 C 169.907 312.980, 159.963 311.237, 153.071 314.752 M 199.226 313.839 C 198.255 314.455, 198.017 318.802, 198.226 332.074 C 198.488 348.742, 198.587 349.500, 200.500 349.500 C 202.359 349.500, 202.535 348.667, 203 337.697 L 203.500 325.894 209.245 337.447 C 212.404 343.801, 215.409 349, 215.923 349 C 217.704 349, 219.524 346.253, 224.500 336.057 L 229.500 325.812 230 337.656 C 230.465 348.667, 230.641 349.500, 232.500 349.500 C 234.413 349.500, 234.512 348.742, 234.774 332.074 C 235.046 314.822, 234.762 313.073, 231.684 313.015 C 231.236 313.007, 227.679 319.605, 223.780 327.677 L 216.690 342.355 209.339 327.677 C 205.295 319.605, 201.652 313.007, 201.243 313.015 C 200.835 313.024, 199.927 313.395, 199.226 313.839 M 255.750 313.574 C 255.338 313.992, 255 322.147, 255 331.698 C 255 346.697, 255.218 349.146, 256.601 349.677 C 258.910 350.563, 259.967 348.242, 259.985 342.250 L 260 337 265.250 336.996 C 275.341 336.989, 280.722 330.303, 277.760 321.453 C 275.844 315.732, 272.222 313.600, 263.699 313.175 C 259.740 312.977, 256.163 313.157, 255.750 313.574 M 295.226 313.840 C 294.255 314.456, 294.017 318.802, 294.226 332.074 C 294.488 348.742, 294.587 349.500, 296.500 349.500 C 298.426 349.500, 298.500 348.833, 298.500 331.583 C 298.500 313.947, 298.139 311.993, 295.226 313.840 M 319.667 313.667 C 319.300 314.033, 319 322.373, 319 332.198 L 319 350.063 330.750 349.782 C 341.739 349.518, 342.500 349.371, 342.500 347.500 C 342.500 345.665, 341.737 345.476, 333.250 345.212 L 324 344.925 324 330.162 C 324 320.014, 323.625 315.025, 322.800 314.200 C 321.441 312.841, 320.631 312.703, 319.667 313.667 M 360.226 313.822 C 359.256 314.451, 359.017 318.809, 359.226 332.074 L 359.500 349.500 372 349.500 C 383.833 349.500, 384.500 349.393, 384.500 347.500 C 384.500 345.649, 383.738 345.479, 374.250 345.215 L 364 344.930 364 339.507 L 364 334.084 371.750 333.792 C 378.736 333.529, 379.500 333.303, 379.500 331.500 C 379.500 329.697, 378.736 329.471, 371.750 329.208 L 364 328.916 364 323.493 L 364 318.070 374.250 317.785 C 383.738 317.521, 384.500 317.351, 384.500 315.500 C 384.500 313.631, 383.749 313.484, 373 313.248 C 366.675 313.110, 360.927 313.368, 360.226 313.822 M 153.615 320.088 C 143.286 328.213, 148.539 346, 161.267 346 C 169.534 346, 174.990 340.092, 174.996 331.132 C 175 326.228, 174.665 325.429, 171.118 321.882 C 167.552 318.317, 166.788 318, 161.753 318 C 157.707 318, 155.574 318.547, 153.615 320.088 M 260 325.627 L 260 333.254 265.075 332.767 C 271.208 332.178, 273.400 330.234, 273.400 325.385 C 273.400 320.536, 270.306 318, 264.389 318 L 260 318 260 325.627 M 400.011 325.487 C 397.424 328.604, 401.812 332.617, 404.675 329.753 C 405.876 328.552, 405.958 327.789, 405.062 326.117 C 403.737 323.640, 401.749 323.392, 400.011 325.487 M 400.972 345.534 C 399.939 346.778, 399.947 347.533, 401.014 349.526 C 402.040 351.443, 402.073 352.545, 401.164 354.539 C 399.675 357.807, 399.695 358, 401.515 358 C 403.488 358, 406.991 352.216, 406.996 348.950 C 407.003 344.531, 403.468 342.527, 400.972 345.534 M 154.455 367.455 C 151.479 370.430, 151.325 373.325, 154 376 C 156.168 378.168, 160.465 378.675, 161.566 376.893 C 162.025 376.151, 161.562 376.004, 160.163 376.448 C 156.950 377.468, 154 375.381, 154 372.087 C 154 368.558, 156.204 366.615, 159.494 367.244 C 162.253 367.771, 162.930 366.571, 160.418 365.607 C 157.848 364.621, 157.038 364.871, 154.455 367.455 M 172.686 366.116 C 168.369 368.627, 169.042 376.470, 173.674 377.633 C 181.136 379.506, 185.364 369.309, 178.434 366.152 C 175.393 364.767, 175.010 364.764, 172.686 366.116 M 211 365.694 C 206.917 367.153, 205.633 373.453, 208.829 376.345 C 210.916 378.234, 213.810 378.460, 216 376.904 C 217.146 376.090, 216.823 375.987, 214.632 376.468 C 211.194 377.222, 208 374.814, 208 371.467 C 208 368.358, 210.424 366.688, 214.145 367.235 C 217.002 367.654, 217.130 367.568, 215.463 366.349 C 213.485 364.903, 213.292 364.875, 211 365.694 M 224.667 365.667 C 224.300 366.033, 224 368.958, 224 372.167 L 224 378 228.750 377.832 C 233.102 377.678, 233.186 377.631, 229.750 377.272 C 226.580 376.940, 226 376.512, 226 374.506 C 226 372.685, 226.640 372.036, 228.750 371.716 L 231.500 371.300 228.750 371.150 C 226.717 371.039, 226 370.479, 226 369 C 226 367.375, 226.667 367, 229.559 367 C 231.677 367, 232.868 366.595, 232.500 366 C 231.811 364.885, 225.708 364.625, 224.667 365.667 M 240.667 365.667 C 239.559 366.775, 239.880 378.192, 241 377.500 C 241.550 377.160, 242 376.038, 242 375.007 C 242 373.706, 242.841 373.036, 244.750 372.816 C 246.910 372.568, 247.568 371.910, 247.816 369.750 C 248.069 367.557, 247.601 366.799, 245.501 366 C 242.408 364.824, 241.567 364.766, 240.667 365.667 M 254.500 366 C 254.160 366.550, 254.786 367, 255.891 367 C 257.628 367, 257.949 367.778, 258.261 372.750 L 258.622 378.500 258.811 372.750 C 258.978 367.673, 259.241 367, 261.059 367 C 262.191 367, 262.840 366.550, 262.500 366 C 262.160 365.450, 260.360 365, 258.500 365 C 256.640 365, 254.840 365.450, 254.500 366 M 271.986 366.810 C 269.270 369.010, 269.058 373.301, 271.530 376.033 C 273.435 378.138, 277.467 378.672, 278.525 376.960 C 278.937 376.293, 278.293 376.139, 276.728 376.532 C 273.762 377.277, 271 374.875, 271 371.551 C 271 368.514, 273.380 366.648, 276.494 367.244 C 279.253 367.771, 279.930 366.571, 277.418 365.607 C 275.047 364.697, 274.425 364.835, 271.986 366.810 M 289.686 366.116 C 285.369 368.627, 286.042 376.470, 290.674 377.633 C 298.136 379.506, 302.364 369.309, 295.434 366.152 C 292.393 364.767, 292.010 364.764, 289.686 366.116 M 307.648 365.685 C 307.292 366.042, 307 368.958, 307 372.167 C 307 377.570, 307.168 378, 309.277 378 C 317.192 378, 318.580 367.415, 310.898 365.638 C 309.468 365.307, 308.005 365.328, 307.648 365.685 M 324.667 365.667 C 324.300 366.033, 324 368.958, 324 372.167 L 324 378 328.250 377.868 L 332.500 377.737 329 377.118 C 326.405 376.660, 325.420 375.936, 325.189 374.318 C 324.933 372.515, 325.454 372.065, 328.189 371.728 L 331.500 371.320 328.250 371.160 C 325.720 371.035, 325 370.557, 325 369 C 325 367.375, 325.667 367, 328.559 367 C 330.677 367, 331.868 366.595, 331.500 366 C 330.809 364.881, 325.701 364.632, 324.667 365.667 M 340.441 366.441 C 338.898 367.587, 338.724 368.249, 339.595 369.669 C 340.197 370.651, 341.769 371.709, 343.089 372.021 C 345.838 372.670, 346.884 375.723, 344.652 376.580 C 343.829 376.896, 342.109 376.596, 340.828 375.913 C 338.710 374.784, 338.624 374.822, 339.872 376.336 C 342.778 379.858, 349.712 376.938, 347.347 373.189 C 346.777 372.285, 345.231 371.291, 343.911 370.979 C 342.591 370.667, 341.352 369.587, 341.157 368.578 C 340.862 367.046, 341.314 366.819, 343.902 367.199 C 347.151 367.676, 348.130 366.648, 345.418 365.607 C 343.154 364.738, 342.613 364.829, 340.441 366.441 M 189 372.059 C 189 375.844, 189.375 377.886, 190 377.500 C 190.550 377.160, 191.014 374.996, 191.032 372.691 L 191.063 368.500 193.059 371.172 C 194.156 372.642, 195.927 374.892, 196.994 376.172 L 198.933 378.500 198.810 372 C 198.688 365.607, 198.676 365.580, 198.093 370.378 L 197.500 375.256 194.188 370.628 C 192.366 368.083, 190.454 366, 189.938 366 C 189.422 366, 189 368.727, 189 372.059 M 172.200 368.200 C 169.546 370.854, 171.900 377, 175.571 377 C 177.238 377, 181 373.489, 181 371.934 C 181 371.348, 180.534 369.998, 179.965 368.934 C 178.792 366.742, 174.101 366.299, 172.200 368.200 M 242 369.500 C 242 371.665, 242.404 372.082, 244.250 371.820 C 245.727 371.610, 246.500 370.813, 246.500 369.500 C 246.500 368.187, 245.727 367.390, 244.250 367.180 C 242.404 366.918, 242 367.335, 242 369.500 M 289.200 368.200 C 286.546 370.854, 288.900 377, 292.571 377 C 294.238 377, 298 373.489, 298 371.934 C 298 371.348, 297.534 369.998, 296.965 368.934 C 295.792 366.742, 291.101 366.299, 289.200 368.200 M 308 372 C 308 377.439, 308.950 378.124, 312.777 375.443 C 316.770 372.646, 315.114 367, 310.300 367 C 308.207 367, 308 367.449, 308 372" stroke="none" fill="black" fill-rule="evenodd"/>
</svg>